<svg xmlns="http://www.w3.org/2000/svg" style="margin-top:2.3px" viewBox="0 0 72 38"><defs><clipPath id="a"><path d="M43.5 30a1.5 1.5 0 1 1-1.5 1.5 1.54 1.54 0 0 1 1.5-1.5z" fill="none"/></clipPath><clipPath id="b"><path d="M50.5 0A1.54 1.54 0 0 1 52 1.5a1.5 1.5 0 0 1-3 0A1.54 1.54 0 0 1 50.5 0z" fill="none"/></clipPath><clipPath id="c"><path d="M22.5 21a1.5 1.5 0 1 1-1.5 1.5 1.54 1.54 0 0 1 1.5-1.5z" fill="none"/></clipPath><clipPath id="d"><path d="M2.5 10a2.5 2.5 0 0 1 0 5 2.5 2.5 0 0 1 0-5z" fill="none"/></clipPath><clipPath id="e"><path d="M69 12a3 3 0 1 1-3 3 2.95 2.95 0 0 1 3-3z" fill="none"/></clipPath><clipPath id="f"><path d="M29 2a3 3 0 0 1 3 3 3 3 0 0 1-6 0 3 3 0 0 1 3-3z" fill="none"/></clipPath><clipPath id="g"><path d="M9 32a3 3 0 0 1 0 6 3 3 0 0 1 0-6z" fill="none"/></clipPath></defs><path d="M70.6 14.8l-26 18-.6-.8-.4.9-21.1-8.6L8.6 35.8l-1.3-1.5 13.8-11.5-.1-.1 5.1-16-22.9 5 5.7 21-1.9.6-6-22 1-.3-.2-1 25-5.6.2-.7 1.3.4.5-.1.1.2h.1l-.1.2.3 1.6-.9.2-4.6 14.4L48.4.2l.6.8.5-.9 21 13-.5.9zM49.1 2.2L24.2 22.8l19.6 8L68.2 14z" fill="#eef5f9"/><path d="M69.3 14.9l-61 22-.7-1.9h.3l-.8-.5 21-30 .1-.5 41 9-.2 1zm-40-8.6l-19.6 28 55.7-20.1z" fill="#deeaf3"/><g clip-path="url(#a)"><path fill="#fdb1a3" d="M42 33h3-3z"/></g><g clip-path="url(#a)"><path fill="#fdb0a3" d="M42 33h3-3z"/></g><g clip-path="url(#a)"><path fill="#fcafa3" d="M42 33h3-3z"/></g><g clip-path="url(#a)"><path fill="#fcaea3" d="M42 33h3-3z"/></g><g clip-path="url(#a)"><path fill="#fcada3" d="M42 33h3-3z"/></g><g clip-path="url(#a)"><path fill="#fbaca2" d="M42 33h3-3z"/></g><g clip-path="url(#a)"><path fill="#fbaba2" d="M42 33h3-3z"/></g><g clip-path="url(#a)"><path fill="#fbaaa2" d="M42 33h3-3z"/></g><g clip-path="url(#a)"><path fill="#faa9a2" d="M42 33h3-3z"/></g><g clip-path="url(#a)"><path fill="#faa8a2" d="M42 33h3-3z"/></g><g clip-path="url(#a)"><path fill="#f9a7a2" d="M42 33h3-3z"/></g><g clip-path="url(#a)"><path fill="#f9a6a2" d="M42 33h3-3z"/></g><g clip-path="url(#a)"><path fill="#f9a5a2" d="M42 33h3-3z"/></g><g clip-path="url(#a)"><path fill="#f8a4a1" d="M42 33h3-3z"/></g><g clip-path="url(#a)"><path fill="#f8a3a1" d="M42 33h3-3z"/></g><g clip-path="url(#a)"><path fill="#f8a2a1" d="M42 32h3v1h-3z"/></g><g clip-path="url(#a)"><path fill="#f7a1a1" d="M42 32h3-3z"/></g><g clip-path="url(#a)"><path fill="#f7a0a1" d="M42 32h3-3z"/></g><g clip-path="url(#a)"><path fill="#f79fa1" d="M42 32h3-3z"/></g><g clip-path="url(#a)"><path fill="#f69ea1" d="M42 32h3-3z"/></g><g clip-path="url(#a)"><path fill="#f69da1" d="M42 32h3-3z"/></g><g clip-path="url(#a)"><path fill="#f69ca0" d="M42 32h3-3z"/></g><g clip-path="url(#a)"><path fill="#f59ba0" d="M42 32h3-3z"/></g><g clip-path="url(#a)"><path fill="#f59aa0" d="M42 32h3-3z"/></g><g clip-path="url(#a)"><path fill="#f499a0" d="M42 32h3-3z"/></g><g clip-path="url(#a)"><path fill="#f498a0" d="M42 32h3-3z"/></g><g clip-path="url(#a)"><path fill="#f497a0" d="M42 32h3-3z"/></g><g clip-path="url(#a)"><path fill="#f396a0" d="M42 32h3-3z"/></g><g clip-path="url(#a)"><path fill="#f395a0" d="M42 32h3-3z"/></g><g clip-path="url(#a)"><path fill="#f3949f" d="M42 32h3-3z"/></g><g clip-path="url(#a)"><path fill="#f2939f" d="M42 32h3-3z"/></g><g clip-path="url(#a)"><path fill="#f2929f" d="M42 32h3-3z"/></g><g clip-path="url(#a)"><path fill="#f2919f" d="M42 32h3-3z"/></g><g clip-path="url(#a)"><path fill="#f1909f" d="M42 32h3-3z"/></g><g clip-path="url(#a)"><path fill="#f18f9f" d="M42 32h3-3z"/></g><g clip-path="url(#a)"><path fill="#f18e9f" d="M42 32h3-3z"/></g><g clip-path="url(#a)"><path fill="#f08d9f" d="M42 32h3-3z"/></g><g clip-path="url(#a)"><path fill="#f08c9e" d="M42 32h3-3z"/></g><g clip-path="url(#a)"><path fill="#ef8b9e" d="M42 32h3-3z"/></g><g clip-path="url(#a)"><path fill="#ef8a9e" d="M42 32h3-3z"/></g><g clip-path="url(#a)"><path fill="#ef899e" d="M42 32h3-3z"/></g><g clip-path="url(#a)"><path fill="#ee889e" d="M42 32h3-3z"/></g><g clip-path="url(#a)"><path fill="#ee879e" d="M42 32h3-3z"/></g><g clip-path="url(#a)"><path fill="#ee869e" d="M42 32h3-3z"/></g><g clip-path="url(#a)"><path fill="#ed859e" d="M42 32h3-3z"/></g><g clip-path="url(#a)"><path fill="#ed849e" d="M42 31h3v1h-3z"/></g><g clip-path="url(#a)"><path fill="#ed829d" d="M42 31h3-3z"/></g><g clip-path="url(#a)"><path fill="#ec819d" d="M42 31h3-3z"/></g><g clip-path="url(#a)"><path fill="#ec809d" d="M42 31h3-3z"/></g><g clip-path="url(#a)"><path fill="#ec7f9d" d="M42 31h3-3z"/></g><g clip-path="url(#a)"><path fill="#eb7e9d" d="M42 31h3-3z"/></g><g clip-path="url(#a)"><path fill="#eb7d9d" d="M42 31h3-3z"/></g><g clip-path="url(#a)"><path fill="#eb7c9d" d="M42 31h3-3z"/></g><g clip-path="url(#a)"><path fill="#ea7b9d" d="M42 31h3-3z"/></g><g clip-path="url(#a)"><path fill="#ea7a9c" d="M42 31h3-3z"/></g><g clip-path="url(#a)"><path fill="#e9799c" d="M42 31h3-3z"/></g><g clip-path="url(#a)"><path fill="#e9789c" d="M42 31h3-3z"/></g><g clip-path="url(#a)"><path fill="#e9779c" d="M42 31h3-3z"/></g><g clip-path="url(#a)"><path fill="#e8769c" d="M42 31h3-3z"/></g><g clip-path="url(#a)"><path fill="#e8759c" d="M42 31h3-3z"/></g><g clip-path="url(#a)"><path fill="#e8749c" d="M42 31h3-3z"/></g><g clip-path="url(#a)"><path fill="#e7739c" d="M42 31h3-3z"/></g><g clip-path="url(#a)"><path fill="#e7729b" d="M42 31h3-3z"/></g><g clip-path="url(#a)"><path fill="#e7719b" d="M42 31h3-3z"/></g><g clip-path="url(#a)"><path fill="#e6709b" d="M42 31h3-3z"/></g><g clip-path="url(#a)"><path fill="#e66f9b" d="M42 31h3-3z"/></g><g clip-path="url(#a)"><path fill="#e66e9b" d="M42 31h3-3z"/></g><g clip-path="url(#a)"><path fill="#e56d9b" d="M42 31h3-3z"/></g><g clip-path="url(#a)"><path fill="#e56c9b" d="M42 31h3-3z"/></g><g clip-path="url(#a)"><path fill="#e46b9b" d="M42 31h3-3z"/></g><g clip-path="url(#a)"><path fill="#e46a9a" d="M42 31h3-3z"/></g><g clip-path="url(#a)"><path fill="#e4699a" d="M42 31h3-3z"/></g><g clip-path="url(#a)"><path fill="#e3689a" d="M42 31h3-3z"/></g><g clip-path="url(#a)"><path fill="#e3679a" d="M42 31h3-3z"/></g><g clip-path="url(#a)"><path fill="#e3669a" d="M42 31h3-3z"/></g><g clip-path="url(#a)"><path fill="#e2659a" d="M42 30h3v1h-3z"/></g><g clip-path="url(#a)"><path fill="#e2649a" d="M42 30h3-3z"/></g><g clip-path="url(#a)"><path fill="#e2639a" d="M42 30h3-3z"/></g><g clip-path="url(#a)"><path fill="#e16299" d="M42 30h3-3z"/></g><g clip-path="url(#a)"><path fill="#e16199" d="M42 30h3-3z"/></g><g clip-path="url(#a)"><path fill="#e16099" d="M42 30h3-3z"/></g><g clip-path="url(#a)"><path fill="#e05f99" d="M42 30h3-3z"/></g><g clip-path="url(#a)"><path fill="#e05e99" d="M42 30h3-3z"/></g><g clip-path="url(#a)"><path fill="#df5d99" d="M42 30h3-3z"/></g><g clip-path="url(#a)"><path fill="#df5c99" d="M42 30h3-3z"/></g><g clip-path="url(#a)"><path fill="#df5b99" d="M42 30h3-3z"/></g><g clip-path="url(#a)"><path fill="#de5a98" d="M42 30h3-3z"/></g><g clip-path="url(#a)"><path fill="#de5998" d="M42 30h3-3z"/></g><g clip-path="url(#a)"><path fill="#de5898" d="M42 30h3-3z"/></g><g clip-path="url(#a)"><path fill="#dd5798" d="M42 30h3-3z"/></g><g clip-path="url(#a)"><path fill="#dd5698" d="M43.5 30H45h-3 1.5z"/></g><g clip-path="url(#b)"><path fill="#fdb1a3" d="M49 3h3-3z"/></g><g clip-path="url(#b)"><path fill="#fdb0a3" d="M49 3h3-3z"/></g><g clip-path="url(#b)"><path fill="#fcafa3" d="M49 3h3-3z"/></g><g clip-path="url(#b)"><path fill="#fcaea3" d="M49 3h3-3z"/></g><g clip-path="url(#b)"><path fill="#fcada3" d="M49 3h3-3z"/></g><g clip-path="url(#b)"><path fill="#fbaca2" d="M49 3h3-3z"/></g><g clip-path="url(#b)"><path fill="#fbaba2" d="M49 3h3-3z"/></g><g clip-path="url(#b)"><path fill="#fbaaa2" d="M49 3h3-3z"/></g><g clip-path="url(#b)"><path fill="#faa9a2" d="M49 3h3-3z"/></g><g clip-path="url(#b)"><path fill="#faa8a2" d="M49 3h3-3z"/></g><g clip-path="url(#b)"><path fill="#f9a7a2" d="M49 3h3-3z"/></g><g clip-path="url(#b)"><path fill="#f9a6a2" d="M49 3h3-3z"/></g><g clip-path="url(#b)"><path fill="#f9a5a2" d="M49 3h3-3z"/></g><g clip-path="url(#b)"><path fill="#f8a4a1" d="M49 3h3-3z"/></g><g clip-path="url(#b)"><path fill="#f8a3a1" d="M49 3h3-3z"/></g><g clip-path="url(#b)"><path fill="#f8a2a1" d="M49 2h3v1h-3z"/></g><g clip-path="url(#b)"><path fill="#f7a1a1" d="M49 2h3-3z"/></g><g clip-path="url(#b)"><path fill="#f7a0a1" d="M49 2h3-3z"/></g><g clip-path="url(#b)"><path fill="#f79fa1" d="M49 2h3-3z"/></g><g clip-path="url(#b)"><path fill="#f69ea1" d="M49 2h3-3z"/></g><g clip-path="url(#b)"><path fill="#f69da1" d="M49 2h3-3z"/></g><g clip-path="url(#b)"><path fill="#f69ca0" d="M49 2h3-3z"/></g><g clip-path="url(#b)"><path fill="#f59ba0" d="M49 2h3-3z"/></g><g clip-path="url(#b)"><path fill="#f59aa0" d="M49 2h3-3z"/></g><g clip-path="url(#b)"><path fill="#f499a0" d="M49 2h3-3z"/></g><g clip-path="url(#b)"><path fill="#f498a0" d="M49 2h3-3z"/></g><g clip-path="url(#b)"><path fill="#f497a0" d="M49 2h3-3z"/></g><g clip-path="url(#b)"><path fill="#f396a0" d="M49 2h3-3z"/></g><g clip-path="url(#b)"><path fill="#f395a0" d="M49 2h3-3z"/></g><g clip-path="url(#b)"><path fill="#f3949f" d="M49 2h3-3z"/></g><g clip-path="url(#b)"><path fill="#f2939f" d="M49 2h3-3z"/></g><g clip-path="url(#b)"><path fill="#f2929f" d="M49 2h3-3z"/></g><g clip-path="url(#b)"><path fill="#f2919f" d="M49 2h3-3z"/></g><g clip-path="url(#b)"><path fill="#f1909f" d="M49 2h3-3z"/></g><g clip-path="url(#b)"><path fill="#f18f9f" d="M49 2h3-3z"/></g><g clip-path="url(#b)"><path fill="#f18e9f" d="M49 2h3-3z"/></g><g clip-path="url(#b)"><path fill="#f08d9f" d="M49 2h3-3z"/></g><g clip-path="url(#b)"><path fill="#f08c9e" d="M49 2h3-3z"/></g><g clip-path="url(#b)"><path fill="#ef8b9e" d="M49 2h3-3z"/></g><g clip-path="url(#b)"><path fill="#ef8a9e" d="M49 2h3-3z"/></g><g clip-path="url(#b)"><path fill="#ef899e" d="M49 2h3-3z"/></g><g clip-path="url(#b)"><path fill="#ee889e" d="M49 2h3-3z"/></g><g clip-path="url(#b)"><path fill="#ee879e" d="M49 2h3-3z"/></g><g clip-path="url(#b)"><path fill="#ee869e" d="M49 2h3-3z"/></g><g clip-path="url(#b)"><path fill="#ed859e" d="M49 2h3-3z"/></g><g clip-path="url(#b)"><path fill="#ed849e" d="M49 1h3v1h-3z"/></g><g clip-path="url(#b)"><path fill="#ed829d" d="M49 1h3-3z"/></g><g clip-path="url(#b)"><path fill="#ec819d" d="M49 1h3-3z"/></g><g clip-path="url(#b)"><path fill="#ec809d" d="M49 1h3-3z"/></g><g clip-path="url(#b)"><path fill="#ec7f9d" d="M49 1h3-3z"/></g><g clip-path="url(#b)"><path fill="#eb7e9d" d="M49 1h3-3z"/></g><g clip-path="url(#b)"><path fill="#eb7d9d" d="M49 1h3-3z"/></g><g clip-path="url(#b)"><path fill="#eb7c9d" d="M49 1h3-3z"/></g><g clip-path="url(#b)"><path fill="#ea7b9d" d="M49 1h3-3z"/></g><g clip-path="url(#b)"><path fill="#ea7a9c" d="M49 1h3-3z"/></g><g clip-path="url(#b)"><path fill="#e9799c" d="M49 1h3-3z"/></g><g clip-path="url(#b)"><path fill="#e9789c" d="M49 1h3-3z"/></g><g clip-path="url(#b)"><path fill="#e9779c" d="M49 1h3-3z"/></g><g clip-path="url(#b)"><path fill="#e8769c" d="M49 1h3-3z"/></g><g clip-path="url(#b)"><path fill="#e8759c" d="M49 1h3-3z"/></g><g clip-path="url(#b)"><path fill="#e8749c" d="M49 1h3-3z"/></g><g clip-path="url(#b)"><path fill="#e7739c" d="M49 1h3-3z"/></g><g clip-path="url(#b)"><path fill="#e7729b" d="M49 1h3-3z"/></g><g clip-path="url(#b)"><path fill="#e7719b" d="M49 1h3-3z"/></g><g clip-path="url(#b)"><path fill="#e6709b" d="M49 1h3-3z"/></g><g clip-path="url(#b)"><path fill="#e66f9b" d="M49 1h3-3z"/></g><g clip-path="url(#b)"><path fill="#e66e9b" d="M49 1h3-3z"/></g><g clip-path="url(#b)"><path fill="#e56d9b" d="M49 1h3-3z"/></g><g clip-path="url(#b)"><path fill="#e56c9b" d="M49 1h3-3z"/></g><g clip-path="url(#b)"><path fill="#e46b9b" d="M49 1h3-3z"/></g><g clip-path="url(#b)"><path fill="#e46a9a" d="M49 1h3-3z"/></g><g clip-path="url(#b)"><path fill="#e4699a" d="M49 1h3-3z"/></g><g clip-path="url(#b)"><path fill="#e3689a" d="M49 1h3-3z"/></g><g clip-path="url(#b)"><path fill="#e3679a" d="M49 1h3-3z"/></g><g clip-path="url(#b)"><path fill="#e3669a" d="M49 1h3-3z"/></g><g clip-path="url(#b)"><path fill="#e2659a" d="M49 0h3v1h-3z"/></g><g clip-path="url(#b)"><path fill="#e2649a" d="M49 0h3-3z"/></g><g clip-path="url(#b)"><path fill="#e2639a" d="M49 0h3-3z"/></g><g clip-path="url(#b)"><path fill="#e16299" d="M49 0h3-3z"/></g><g clip-path="url(#b)"><path fill="#e16199" d="M49 0h3-3z"/></g><g clip-path="url(#b)"><path fill="#e16099" d="M49 0h3-3z"/></g><g clip-path="url(#b)"><path fill="#e05f99" d="M49 0h3-3z"/></g><g clip-path="url(#b)"><path fill="#e05e99" d="M49 0h3-3z"/></g><g clip-path="url(#b)"><path fill="#df5d99" d="M49 0h3-3z"/></g><g clip-path="url(#b)"><path fill="#df5c99" d="M49 0h3-3z"/></g><g clip-path="url(#b)"><path fill="#df5b99" d="M49 0h3-3z"/></g><g clip-path="url(#b)"><path fill="#de5a98" d="M49 0h3-3z"/></g><g clip-path="url(#b)"><path fill="#de5998" d="M49 0h3-3z"/></g><g clip-path="url(#b)"><path fill="#de5898" d="M49 0h3-3z"/></g><g clip-path="url(#b)"><path fill="#dd5798" d="M49 0h3-3z"/></g><g clip-path="url(#b)"><path fill="#dd5698" d="M50.5 0H52h-3 1.5z"/></g><g clip-path="url(#c)"><path fill="#fdb1a3" d="M21 24h3-3z"/></g><g clip-path="url(#c)"><path fill="#fdb0a3" d="M21 24h3-3z"/></g><g clip-path="url(#c)"><path fill="#fcafa3" d="M21 24h3-3z"/></g><g clip-path="url(#c)"><path fill="#fcaea3" d="M21 24h3-3z"/></g><g clip-path="url(#c)"><path fill="#fcada3" d="M21 24h3-3z"/></g><g clip-path="url(#c)"><path fill="#fbaca2" d="M21 24h3-3z"/></g><g clip-path="url(#c)"><path fill="#fbaba2" d="M21 24h3-3z"/></g><g clip-path="url(#c)"><path fill="#fbaaa2" d="M21 24h3-3z"/></g><g clip-path="url(#c)"><path fill="#faa9a2" d="M21 24h3-3z"/></g><g clip-path="url(#c)"><path fill="#faa8a2" d="M21 24h3-3z"/></g><g clip-path="url(#c)"><path fill="#f9a7a2" d="M21 24h3-3z"/></g><g clip-path="url(#c)"><path fill="#f9a6a2" d="M21 24h3-3z"/></g><g clip-path="url(#c)"><path fill="#f9a5a2" d="M21 24h3-3z"/></g><g clip-path="url(#c)"><path fill="#f8a4a1" d="M21 24h3-3z"/></g><g clip-path="url(#c)"><path fill="#f8a3a1" d="M21 24h3-3z"/></g><g clip-path="url(#c)"><path fill="#f8a2a1" d="M21 23h3v1h-3z"/></g><g clip-path="url(#c)"><path fill="#f7a1a1" d="M21 23h3-3z"/></g><g clip-path="url(#c)"><path fill="#f7a0a1" d="M21 23h3-3z"/></g><g clip-path="url(#c)"><path fill="#f79fa1" d="M21 23h3-3z"/></g><g clip-path="url(#c)"><path fill="#f69ea1" d="M21 23h3-3z"/></g><g clip-path="url(#c)"><path fill="#f69da1" d="M21 23h3-3z"/></g><g clip-path="url(#c)"><path fill="#f69ca0" d="M21 23h3-3z"/></g><g clip-path="url(#c)"><path fill="#f59ba0" d="M21 23h3-3z"/></g><g clip-path="url(#c)"><path fill="#f59aa0" d="M21 23h3-3z"/></g><g clip-path="url(#c)"><path fill="#f499a0" d="M21 23h3-3z"/></g><g clip-path="url(#c)"><path fill="#f498a0" d="M21 23h3-3z"/></g><g clip-path="url(#c)"><path fill="#f497a0" d="M21 23h3-3z"/></g><g clip-path="url(#c)"><path fill="#f396a0" d="M21 23h3-3z"/></g><g clip-path="url(#c)"><path fill="#f395a0" d="M21 23h3-3z"/></g><g clip-path="url(#c)"><path fill="#f3949f" d="M21 23h3-3z"/></g><g clip-path="url(#c)"><path fill="#f2939f" d="M21 23h3-3z"/></g><g clip-path="url(#c)"><path fill="#f2929f" d="M21 23h3-3z"/></g><g clip-path="url(#c)"><path fill="#f2919f" d="M21 23h3-3z"/></g><g clip-path="url(#c)"><path fill="#f1909f" d="M21 23h3-3z"/></g><g clip-path="url(#c)"><path fill="#f18f9f" d="M21 23h3-3z"/></g><g clip-path="url(#c)"><path fill="#f18e9f" d="M21 23h3-3z"/></g><g clip-path="url(#c)"><path fill="#f08d9f" d="M21 23h3-3z"/></g><g clip-path="url(#c)"><path fill="#f08c9e" d="M21 23h3-3z"/></g><g clip-path="url(#c)"><path fill="#ef8b9e" d="M21 23h3-3z"/></g><g clip-path="url(#c)"><path fill="#ef8a9e" d="M21 23h3-3z"/></g><g clip-path="url(#c)"><path fill="#ef899e" d="M21 23h3-3z"/></g><g clip-path="url(#c)"><path fill="#ee889e" d="M21 23h3-3z"/></g><g clip-path="url(#c)"><path fill="#ee879e" d="M21 23h3-3z"/></g><g clip-path="url(#c)"><path fill="#ee869e" d="M21 23h3-3z"/></g><g clip-path="url(#c)"><path fill="#ed859e" d="M21 23h3-3z"/></g><g clip-path="url(#c)"><path fill="#ed849e" d="M21 22h3v1h-3z"/></g><g clip-path="url(#c)"><path fill="#ed829d" d="M21 22h3-3z"/></g><g clip-path="url(#c)"><path fill="#ec819d" d="M21 22h3-3z"/></g><g clip-path="url(#c)"><path fill="#ec809d" d="M21 22h3-3z"/></g><g clip-path="url(#c)"><path fill="#ec7f9d" d="M21 22h3-3z"/></g><g clip-path="url(#c)"><path fill="#eb7e9d" d="M21 22h3-3z"/></g><g clip-path="url(#c)"><path fill="#eb7d9d" d="M21 22h3-3z"/></g><g clip-path="url(#c)"><path fill="#eb7c9d" d="M21 22h3-3z"/></g><g clip-path="url(#c)"><path fill="#ea7b9d" d="M21 22h3-3z"/></g><g clip-path="url(#c)"><path fill="#ea7a9c" d="M21 22h3-3z"/></g><g clip-path="url(#c)"><path fill="#e9799c" d="M21 22h3-3z"/></g><g clip-path="url(#c)"><path fill="#e9789c" d="M21 22h3-3z"/></g><g clip-path="url(#c)"><path fill="#e9779c" d="M21 22h3-3z"/></g><g clip-path="url(#c)"><path fill="#e8769c" d="M21 22h3-3z"/></g><g clip-path="url(#c)"><path fill="#e8759c" d="M21 22h3-3z"/></g><g clip-path="url(#c)"><path fill="#e8749c" d="M21 22h3-3z"/></g><g clip-path="url(#c)"><path fill="#e7739c" d="M21 22h3-3z"/></g><g clip-path="url(#c)"><path fill="#e7729b" d="M21 22h3-3z"/></g><g clip-path="url(#c)"><path fill="#e7719b" d="M21 22h3-3z"/></g><g clip-path="url(#c)"><path fill="#e6709b" d="M21 22h3-3z"/></g><g clip-path="url(#c)"><path fill="#e66f9b" d="M21 22h3-3z"/></g><g clip-path="url(#c)"><path fill="#e66e9b" d="M21 22h3-3z"/></g><g clip-path="url(#c)"><path fill="#e56d9b" d="M21 22h3-3z"/></g><g clip-path="url(#c)"><path fill="#e56c9b" d="M21 22h3-3z"/></g><g clip-path="url(#c)"><path fill="#e46b9b" d="M21 22h3-3z"/></g><g clip-path="url(#c)"><path fill="#e46a9a" d="M21 22h3-3z"/></g><g clip-path="url(#c)"><path fill="#e4699a" d="M21 22h3-3z"/></g><g clip-path="url(#c)"><path fill="#e3689a" d="M21 22h3-3z"/></g><g clip-path="url(#c)"><path fill="#e3679a" d="M21 22h3-3z"/></g><g clip-path="url(#c)"><path fill="#e3669a" d="M21 22h3-3z"/></g><g clip-path="url(#c)"><path fill="#e2659a" d="M21 21h3v1h-3z"/></g><g clip-path="url(#c)"><path fill="#e2649a" d="M21 21h3-3z"/></g><g clip-path="url(#c)"><path fill="#e2639a" d="M21 21h3-3z"/></g><g clip-path="url(#c)"><path fill="#e16299" d="M21 21h3-3z"/></g><g clip-path="url(#c)"><path fill="#e16199" d="M21 21h3-3z"/></g><g clip-path="url(#c)"><path fill="#e16099" d="M21 21h3-3z"/></g><g clip-path="url(#c)"><path fill="#e05f99" d="M21 21h3-3z"/></g><g clip-path="url(#c)"><path fill="#e05e99" d="M21 21h3-3z"/></g><g clip-path="url(#c)"><path fill="#df5d99" d="M21 21h3-3z"/></g><g clip-path="url(#c)"><path fill="#df5c99" d="M21 21h3-3z"/></g><g clip-path="url(#c)"><path fill="#df5b99" d="M21 21h3-3z"/></g><g clip-path="url(#c)"><path fill="#de5a98" d="M21 21h3-3z"/></g><g clip-path="url(#c)"><path fill="#de5998" d="M21 21h3-3z"/></g><g clip-path="url(#c)"><path fill="#de5898" d="M21 21h3-3z"/></g><g clip-path="url(#c)"><path fill="#dd5798" d="M21 21h3-3z"/></g><g clip-path="url(#c)"><path fill="#dd5698" d="M22.5 21H24h-3 1.5z"/></g><g clip-path="url(#d)"><path fill="#fdb1a3" d="M0 15h5-5z"/></g><g clip-path="url(#d)"><path fill="#fdb0a3" d="M0 15h5-5z"/></g><g clip-path="url(#d)"><path fill="#fcafa3" d="M0 15h5-5z"/></g><g clip-path="url(#d)"><path fill="#fcaea3" d="M0 15h5-5z"/></g><g clip-path="url(#d)"><path fill="#fcada3" d="M0 15h5-5z"/></g><g clip-path="url(#d)"><path fill="#fbaca2" d="M0 15h5-5z"/></g><g clip-path="url(#d)"><path fill="#fbaba2" d="M0 15h5-5z"/></g><g clip-path="url(#d)"><path fill="#fbaaa2" d="M0 15h5-5z"/></g><g clip-path="url(#d)"><path fill="#faa9a2" d="M0 15h5-5z"/></g><g clip-path="url(#d)"><path fill="#faa8a2" d="M0 14h5v1H0z"/></g><g clip-path="url(#d)"><path fill="#f9a7a2" d="M0 14h5-5z"/></g><g clip-path="url(#d)"><path fill="#f9a6a2" d="M0 14h5-5z"/></g><g clip-path="url(#d)"><path fill="#f9a5a2" d="M0 14h5-5z"/></g><g clip-path="url(#d)"><path fill="#f8a4a1" d="M0 14h5-5z"/></g><g clip-path="url(#d)"><path fill="#f8a3a1" d="M0 14h5-5z"/></g><g clip-path="url(#d)"><path fill="#f8a2a1" d="M0 14h5-5z"/></g><g clip-path="url(#d)"><path fill="#f7a1a1" d="M0 14h5-5z"/></g><g clip-path="url(#d)"><path fill="#f7a0a1" d="M0 14h5-5z"/></g><g clip-path="url(#d)"><path fill="#f79fa1" d="M0 14h5-5z"/></g><g clip-path="url(#d)"><path fill="#f69ea1" d="M0 14h5-5z"/></g><g clip-path="url(#d)"><path fill="#f69da1" d="M0 14h5-5z"/></g><g clip-path="url(#d)"><path fill="#f69ca0" d="M0 14h5-5z"/></g><g clip-path="url(#d)"><path fill="#f59ba0" d="M0 14h5-5z"/></g><g clip-path="url(#d)"><path fill="#f59aa0" d="M0 14h5-5z"/></g><g clip-path="url(#d)"><path fill="#f499a0" d="M0 14h5-5z"/></g><g clip-path="url(#d)"><path fill="#f498a0" d="M0 14h5-5z"/></g><g clip-path="url(#d)"><path fill="#f497a0" d="M0 14h5-5z"/></g><g clip-path="url(#d)"><path fill="#f396a0" d="M0 13h5v1H0z"/></g><g clip-path="url(#d)"><path fill="#f395a0" d="M0 13h5-5z"/></g><g clip-path="url(#d)"><path fill="#f3949f" d="M0 13h5-5z"/></g><g clip-path="url(#d)"><path fill="#f2939f" d="M0 13h5-5z"/></g><g clip-path="url(#d)"><path fill="#f2929f" d="M0 13h5-5z"/></g><g clip-path="url(#d)"><path fill="#f2919f" d="M0 13h5-5z"/></g><g clip-path="url(#d)"><path fill="#f1909f" d="M0 13h5-5z"/></g><g clip-path="url(#d)"><path fill="#f18f9f" d="M0 13h5-5z"/></g><g clip-path="url(#d)"><path fill="#f18e9f" d="M0 13h5-5z"/></g><g clip-path="url(#d)"><path fill="#f08d9f" d="M0 13h5-5z"/></g><g clip-path="url(#d)"><path fill="#f08c9e" d="M0 13h5-5z"/></g><g clip-path="url(#d)"><path fill="#ef8b9e" d="M0 13h5-5z"/></g><g clip-path="url(#d)"><path fill="#ef8a9e" d="M0 13h5-5z"/></g><g clip-path="url(#d)"><path fill="#ef899e" d="M0 13h5-5z"/></g><g clip-path="url(#d)"><path fill="#ee889e" d="M0 13h5-5z"/></g><g clip-path="url(#d)"><path fill="#ee879e" d="M0 13h5-5z"/></g><g clip-path="url(#d)"><path fill="#ee869e" d="M0 13h5-5z"/></g><g clip-path="url(#d)"><path fill="#ed859e" d="M0 13h5-5z"/></g><g clip-path="url(#d)"><path fill="#ed849e" d="M0 12h5v1H0z"/></g><g clip-path="url(#d)"><path fill="#ed829d" d="M0 12h5-5z"/></g><g clip-path="url(#d)"><path fill="#ec819d" d="M0 12h5-5z"/></g><g clip-path="url(#d)"><path fill="#ec809d" d="M0 12h5-5z"/></g><g clip-path="url(#d)"><path fill="#ec7f9d" d="M0 12h5-5z"/></g><g clip-path="url(#d)"><path fill="#eb7e9d" d="M0 12h5-5z"/></g><g clip-path="url(#d)"><path fill="#eb7d9d" d="M0 12h5-5z"/></g><g clip-path="url(#d)"><path fill="#eb7c9d" d="M0 12h5-5z"/></g><g clip-path="url(#d)"><path fill="#ea7b9d" d="M0 12h5-5z"/></g><g clip-path="url(#d)"><path fill="#ea7a9c" d="M0 12h5-5z"/></g><g clip-path="url(#d)"><path fill="#e9799c" d="M0 12h5-5z"/></g><g clip-path="url(#d)"><path fill="#e9789c" d="M0 12h5-5z"/></g><g clip-path="url(#d)"><path fill="#e9779c" d="M0 12h5-5z"/></g><g clip-path="url(#d)"><path fill="#e8769c" d="M0 12h5-5z"/></g><g clip-path="url(#d)"><path fill="#e8759c" d="M0 12h5-5z"/></g><g clip-path="url(#d)"><path fill="#e8749c" d="M0 12h5-5z"/></g><g clip-path="url(#d)"><path fill="#e7739c" d="M0 12h5-5z"/></g><g clip-path="url(#d)"><path fill="#e7729b" d="M0 12h5-5z"/></g><g clip-path="url(#d)"><path fill="#e7719b" d="M0 11h5v1H0z"/></g><g clip-path="url(#d)"><path fill="#e6709b" d="M0 11h5-5z"/></g><g clip-path="url(#d)"><path fill="#e66f9b" d="M0 11h5-5z"/></g><g clip-path="url(#d)"><path fill="#e66e9b" d="M0 11h5-5z"/></g><g clip-path="url(#d)"><path fill="#e56d9b" d="M0 11h5-5z"/></g><g clip-path="url(#d)"><path fill="#e56c9b" d="M0 11h5-5z"/></g><g clip-path="url(#d)"><path fill="#e46b9b" d="M0 11h5-5z"/></g><g clip-path="url(#d)"><path fill="#e46a9a" d="M0 11h5-5z"/></g><g clip-path="url(#d)"><path fill="#e4699a" d="M0 11h5-5z"/></g><g clip-path="url(#d)"><path fill="#e3689a" d="M0 11h5-5z"/></g><g clip-path="url(#d)"><path fill="#e3679a" d="M0 11h5-5z"/></g><g clip-path="url(#d)"><path fill="#e3669a" d="M0 11h5-5z"/></g><g clip-path="url(#d)"><path fill="#e2659a" d="M0 11h5-5z"/></g><g clip-path="url(#d)"><path fill="#e2649a" d="M0 11h5-5z"/></g><g clip-path="url(#d)"><path fill="#e2639a" d="M0 11h5-5z"/></g><g clip-path="url(#d)"><path fill="#e16299" d="M0 11h5-5z"/></g><g clip-path="url(#d)"><path fill="#e16199" d="M0 11h5-5z"/></g><g clip-path="url(#d)"><path fill="#e16099" d="M0 11h5-5z"/></g><g clip-path="url(#d)"><path fill="#e05f99" d="M0 10h5v1H0z"/></g><g clip-path="url(#d)"><path fill="#e05e99" d="M0 10h5-5z"/></g><g clip-path="url(#d)"><path fill="#df5d99" d="M0 10h5-5z"/></g><g clip-path="url(#d)"><path fill="#df5c99" d="M0 10h5-5z"/></g><g clip-path="url(#d)"><path fill="#df5b99" d="M0 10h5-5z"/></g><g clip-path="url(#d)"><path fill="#de5a98" d="M0 10h5-5z"/></g><g clip-path="url(#d)"><path fill="#de5998" d="M0 10h5-5z"/></g><g clip-path="url(#d)"><path fill="#de5898" d="M0 10h5-5z"/></g><g clip-path="url(#d)"><path fill="#dd5798" d="M0 10h5-5z"/></g><g clip-path="url(#d)"><path fill="#dd5698" d="M2.5 10H5 0h2.5z"/></g><g clip-path="url(#e)"><path fill="#fdb1a3" d="M66 18h6-6z"/></g><g clip-path="url(#e)"><path fill="#fdb0a3" d="M66 18h6-6z"/></g><g clip-path="url(#e)"><path fill="#fcafa3" d="M66 18h6-6z"/></g><g clip-path="url(#e)"><path fill="#fcaea3" d="M66 18h6-6z"/></g><g clip-path="url(#e)"><path fill="#fcada3" d="M66 18h6-6z"/></g><g clip-path="url(#e)"><path fill="#fbaca2" d="M66 18h6-6z"/></g><g clip-path="url(#e)"><path fill="#fbaba2" d="M66 18h6-6z"/></g><g clip-path="url(#e)"><path fill="#fbaaa2" d="M66 17h6v1h-6z"/></g><g clip-path="url(#e)"><path fill="#faa9a2" d="M66 17h6-6z"/></g><g clip-path="url(#e)"><path fill="#faa8a2" d="M66 17h6-6z"/></g><g clip-path="url(#e)"><path fill="#f9a7a2" d="M66 17h6-6z"/></g><g clip-path="url(#e)"><path fill="#f9a6a2" d="M66 17h6-6z"/></g><g clip-path="url(#e)"><path fill="#f9a5a2" d="M66 17h6-6z"/></g><g clip-path="url(#e)"><path fill="#f8a4a1" d="M66 17h6-6z"/></g><g clip-path="url(#e)"><path fill="#f8a3a1" d="M66 17h6-6z"/></g><g clip-path="url(#e)"><path fill="#f8a2a1" d="M66 17h6-6z"/></g><g clip-path="url(#e)"><path fill="#f7a1a1" d="M66 17h6-6z"/></g><g clip-path="url(#e)"><path fill="#f7a0a1" d="M66 17h6-6z"/></g><g clip-path="url(#e)"><path fill="#f79fa1" d="M66 17h6-6z"/></g><g clip-path="url(#e)"><path fill="#f69ea1" d="M66 17h6-6z"/></g><g clip-path="url(#e)"><path fill="#f69da1" d="M66 17h6-6z"/></g><g clip-path="url(#e)"><path fill="#f69ca0" d="M66 17h6-6z"/></g><g clip-path="url(#e)"><path fill="#f59ba0" d="M66 16h6v1h-6z"/></g><g clip-path="url(#e)"><path fill="#f59aa0" d="M66 16h6-6z"/></g><g clip-path="url(#e)"><path fill="#f499a0" d="M66 16h6-6z"/></g><g clip-path="url(#e)"><path fill="#f498a0" d="M66 16h6-6z"/></g><g clip-path="url(#e)"><path fill="#f497a0" d="M66 16h6-6z"/></g><g clip-path="url(#e)"><path fill="#f396a0" d="M66 16h6-6z"/></g><g clip-path="url(#e)"><path fill="#f395a0" d="M66 16h6-6z"/></g><g clip-path="url(#e)"><path fill="#f3949f" d="M66 16h6-6z"/></g><g clip-path="url(#e)"><path fill="#f2939f" d="M66 16h6-6z"/></g><g clip-path="url(#e)"><path fill="#f2929f" d="M66 16h6-6z"/></g><g clip-path="url(#e)"><path fill="#f2919f" d="M66 16h6-6z"/></g><g clip-path="url(#e)"><path fill="#f1909f" d="M66 16h6-6z"/></g><g clip-path="url(#e)"><path fill="#f18f9f" d="M66 16h6-6z"/></g><g clip-path="url(#e)"><path fill="#f18e9f" d="M66 16h6-6z"/></g><g clip-path="url(#e)"><path fill="#f08d9f" d="M66 16h6-6z"/></g><g clip-path="url(#e)"><path fill="#f08c9e" d="M66 15h6v1h-6z"/></g><g clip-path="url(#e)"><path fill="#ef8b9e" d="M66 15h6-6z"/></g><g clip-path="url(#e)"><path fill="#ef8a9e" d="M66 15h6-6z"/></g><g clip-path="url(#e)"><path fill="#ef899e" d="M66 15h6-6z"/></g><g clip-path="url(#e)"><path fill="#ee889e" d="M66 15h6-6z"/></g><g clip-path="url(#e)"><path fill="#ee879e" d="M66 15h6-6z"/></g><g clip-path="url(#e)"><path fill="#ee869e" d="M66 15h6-6z"/></g><g clip-path="url(#e)"><path fill="#ed859e" d="M66 15h6-6z"/></g><g clip-path="url(#e)"><path fill="#ed849e" d="M66 15h6-6z"/></g><g clip-path="url(#e)"><path fill="#ed829d" d="M66 15h6-6z"/></g><g clip-path="url(#e)"><path fill="#ec819d" d="M66 15h6-6z"/></g><g clip-path="url(#e)"><path fill="#ec809d" d="M66 15h6-6z"/></g><g clip-path="url(#e)"><path fill="#ec7f9d" d="M66 15h6-6z"/></g><g clip-path="url(#e)"><path fill="#eb7e9d" d="M66 15h6-6z"/></g><g clip-path="url(#e)"><path fill="#eb7d9d" d="M66 15h6-6z"/></g><g clip-path="url(#e)"><path fill="#eb7c9d" d="M66 15h6-6z"/></g><g clip-path="url(#e)"><path fill="#ea7b9d" d="M66 14h6v1h-6z"/></g><g clip-path="url(#e)"><path fill="#ea7a9c" d="M66 14h6-6z"/></g><g clip-path="url(#e)"><path fill="#e9799c" d="M66 14h6-6z"/></g><g clip-path="url(#e)"><path fill="#e9789c" d="M66 14h6-6z"/></g><g clip-path="url(#e)"><path fill="#e9779c" d="M66 14h6-6z"/></g><g clip-path="url(#e)"><path fill="#e8769c" d="M66 14h6-6z"/></g><g clip-path="url(#e)"><path fill="#e8759c" d="M66 14h6-6z"/></g><g clip-path="url(#e)"><path fill="#e8749c" d="M66 14h6-6z"/></g><g clip-path="url(#e)"><path fill="#e7739c" d="M66 14h6-6z"/></g><g clip-path="url(#e)"><path fill="#e7729b" d="M66 14h6-6z"/></g><g clip-path="url(#e)"><path fill="#e7719b" d="M66 14h6-6z"/></g><g clip-path="url(#e)"><path fill="#e6709b" d="M66 14h6-6z"/></g><g clip-path="url(#e)"><path fill="#e66f9b" d="M66 14h6-6z"/></g><g clip-path="url(#e)"><path fill="#e66e9b" d="M66 14h6-6z"/></g><g clip-path="url(#e)"><path fill="#e56d9b" d="M66 14h6-6z"/></g><g clip-path="url(#e)"><path fill="#e56c9b" d="M66 13h6v1h-6z"/></g><g clip-path="url(#e)"><path fill="#e46b9b" d="M66 13h6-6z"/></g><g clip-path="url(#e)"><path fill="#e46a9a" d="M66 13h6-6z"/></g><g clip-path="url(#e)"><path fill="#e4699a" d="M66 13h6-6z"/></g><g clip-path="url(#e)"><path fill="#e3689a" d="M66 13h6-6z"/></g><g clip-path="url(#e)"><path fill="#e3679a" d="M66 13h6-6z"/></g><g clip-path="url(#e)"><path fill="#e3669a" d="M66 13h6-6z"/></g><g clip-path="url(#e)"><path fill="#e2659a" d="M66 13h6-6z"/></g><g clip-path="url(#e)"><path fill="#e2649a" d="M66 13h6-6z"/></g><g clip-path="url(#e)"><path fill="#e2639a" d="M66 13h6-6z"/></g><g clip-path="url(#e)"><path fill="#e16299" d="M66 13h6-6z"/></g><g clip-path="url(#e)"><path fill="#e16199" d="M66 13h6-6z"/></g><g clip-path="url(#e)"><path fill="#e16099" d="M66 13h6-6z"/></g><g clip-path="url(#e)"><path fill="#e05f99" d="M66 13h6-6z"/></g><g clip-path="url(#e)"><path fill="#e05e99" d="M66 13h6-6z"/></g><g clip-path="url(#e)"><path fill="#df5d99" d="M66 12h6v1h-6z"/></g><g clip-path="url(#e)"><path fill="#df5c99" d="M66 12h6-6z"/></g><g clip-path="url(#e)"><path fill="#df5b99" d="M66 12h6-6z"/></g><g clip-path="url(#e)"><path fill="#de5a98" d="M66 12h6-6z"/></g><g clip-path="url(#e)"><path fill="#de5998" d="M66 12h6-6z"/></g><g clip-path="url(#e)"><path fill="#de5898" d="M66 12h6-6z"/></g><g clip-path="url(#e)"><path fill="#dd5798" d="M66 12h6-6z"/></g><g clip-path="url(#e)"><path fill="#dd5698" d="M69 12h3-6 3z"/></g><g clip-path="url(#f)"><path fill="#fdb1a3" d="M26 8h6-6z"/></g><g clip-path="url(#f)"><path fill="#fdb0a3" d="M26 8h6-6z"/></g><g clip-path="url(#f)"><path fill="#fcafa3" d="M26 8h6-6z"/></g><g clip-path="url(#f)"><path fill="#fcaea3" d="M26 8h6-6z"/></g><g clip-path="url(#f)"><path fill="#fcada3" d="M26 8h6-6z"/></g><g clip-path="url(#f)"><path fill="#fbaca2" d="M26 8h6-6z"/></g><g clip-path="url(#f)"><path fill="#fbaba2" d="M26 8h6-6z"/></g><g clip-path="url(#f)"><path fill="#fbaaa2" d="M26 7h6v1h-6z"/></g><g clip-path="url(#f)"><path fill="#faa9a2" d="M26 7h6-6z"/></g><g clip-path="url(#f)"><path fill="#faa8a2" d="M26 7h6-6z"/></g><g clip-path="url(#f)"><path fill="#f9a7a2" d="M26 7h6-6z"/></g><g clip-path="url(#f)"><path fill="#f9a6a2" d="M26 7h6-6z"/></g><g clip-path="url(#f)"><path fill="#f9a5a2" d="M26 7h6-6z"/></g><g clip-path="url(#f)"><path fill="#f8a4a1" d="M26 7h6-6z"/></g><g clip-path="url(#f)"><path fill="#f8a3a1" d="M26 7h6-6z"/></g><g clip-path="url(#f)"><path fill="#f8a2a1" d="M26 7h6-6z"/></g><g clip-path="url(#f)"><path fill="#f7a1a1" d="M26 7h6-6z"/></g><g clip-path="url(#f)"><path fill="#f7a0a1" d="M26 7h6-6z"/></g><g clip-path="url(#f)"><path fill="#f79fa1" d="M26 7h6-6z"/></g><g clip-path="url(#f)"><path fill="#f69ea1" d="M26 7h6-6z"/></g><g clip-path="url(#f)"><path fill="#f69da1" d="M26 7h6-6z"/></g><g clip-path="url(#f)"><path fill="#f69ca0" d="M26 7h6-6z"/></g><g clip-path="url(#f)"><path fill="#f59ba0" d="M26 6h6v1h-6z"/></g><g clip-path="url(#f)"><path fill="#f59aa0" d="M26 6h6-6z"/></g><g clip-path="url(#f)"><path fill="#f499a0" d="M26 6h6-6z"/></g><g clip-path="url(#f)"><path fill="#f498a0" d="M26 6h6-6z"/></g><g clip-path="url(#f)"><path fill="#f497a0" d="M26 6h6-6z"/></g><g clip-path="url(#f)"><path fill="#f396a0" d="M26 6h6-6z"/></g><g clip-path="url(#f)"><path fill="#f395a0" d="M26 6h6-6z"/></g><g clip-path="url(#f)"><path fill="#f3949f" d="M26 6h6-6z"/></g><g clip-path="url(#f)"><path fill="#f2939f" d="M26 6h6-6z"/></g><g clip-path="url(#f)"><path fill="#f2929f" d="M26 6h6-6z"/></g><g clip-path="url(#f)"><path fill="#f2919f" d="M26 6h6-6z"/></g><g clip-path="url(#f)"><path fill="#f1909f" d="M26 6h6-6z"/></g><g clip-path="url(#f)"><path fill="#f18f9f" d="M26 6h6-6z"/></g><g clip-path="url(#f)"><path fill="#f18e9f" d="M26 6h6-6z"/></g><g clip-path="url(#f)"><path fill="#f08d9f" d="M26 6h6-6z"/></g><g clip-path="url(#f)"><path fill="#f08c9e" d="M26 5h6v1h-6z"/></g><g clip-path="url(#f)"><path fill="#ef8b9e" d="M26 5h6-6z"/></g><g clip-path="url(#f)"><path fill="#ef8a9e" d="M26 5h6-6z"/></g><g clip-path="url(#f)"><path fill="#ef899e" d="M26 5h6-6z"/></g><g clip-path="url(#f)"><path fill="#ee889e" d="M26 5h6-6z"/></g><g clip-path="url(#f)"><path fill="#ee879e" d="M26 5h6-6z"/></g><g clip-path="url(#f)"><path fill="#ee869e" d="M26 5h6-6z"/></g><g clip-path="url(#f)"><path fill="#ed859e" d="M26 5h6-6z"/></g><g clip-path="url(#f)"><path fill="#ed849e" d="M26 5h6-6z"/></g><g clip-path="url(#f)"><path fill="#ed829d" d="M26 5h6-6z"/></g><g clip-path="url(#f)"><path fill="#ec819d" d="M26 5h6-6z"/></g><g clip-path="url(#f)"><path fill="#ec809d" d="M26 5h6-6z"/></g><g clip-path="url(#f)"><path fill="#ec7f9d" d="M26 5h6-6z"/></g><g clip-path="url(#f)"><path fill="#eb7e9d" d="M26 5h6-6z"/></g><g clip-path="url(#f)"><path fill="#eb7d9d" d="M26 5h6-6z"/></g><g clip-path="url(#f)"><path fill="#eb7c9d" d="M26 5h6-6z"/></g><g clip-path="url(#f)"><path fill="#ea7b9d" d="M26 4h6v1h-6z"/></g><g clip-path="url(#f)"><path fill="#ea7a9c" d="M26 4h6-6z"/></g><g clip-path="url(#f)"><path fill="#e9799c" d="M26 4h6-6z"/></g><g clip-path="url(#f)"><path fill="#e9789c" d="M26 4h6-6z"/></g><g clip-path="url(#f)"><path fill="#e9779c" d="M26 4h6-6z"/></g><g clip-path="url(#f)"><path fill="#e8769c" d="M26 4h6-6z"/></g><g clip-path="url(#f)"><path fill="#e8759c" d="M26 4h6-6z"/></g><g clip-path="url(#f)"><path fill="#e8749c" d="M26 4h6-6z"/></g><g clip-path="url(#f)"><path fill="#e7739c" d="M26 4h6-6z"/></g><g clip-path="url(#f)"><path fill="#e7729b" d="M26 4h6-6z"/></g><g clip-path="url(#f)"><path fill="#e7719b" d="M26 4h6-6z"/></g><g clip-path="url(#f)"><path fill="#e6709b" d="M26 4h6-6z"/></g><g clip-path="url(#f)"><path fill="#e66f9b" d="M26 4h6-6z"/></g><g clip-path="url(#f)"><path fill="#e66e9b" d="M26 4h6-6z"/></g><g clip-path="url(#f)"><path fill="#e56d9b" d="M26 4h6-6z"/></g><g clip-path="url(#f)"><path fill="#e56c9b" d="M26 3h6v1h-6z"/></g><g clip-path="url(#f)"><path fill="#e46b9b" d="M26 3h6-6z"/></g><g clip-path="url(#f)"><path fill="#e46a9a" d="M26 3h6-6z"/></g><g clip-path="url(#f)"><path fill="#e4699a" d="M26 3h6-6z"/></g><g clip-path="url(#f)"><path fill="#e3689a" d="M26 3h6-6z"/></g><g clip-path="url(#f)"><path fill="#e3679a" d="M26 3h6-6z"/></g><g clip-path="url(#f)"><path fill="#e3669a" d="M26 3h6-6z"/></g><g clip-path="url(#f)"><path fill="#e2659a" d="M26 3h6-6z"/></g><g clip-path="url(#f)"><path fill="#e2649a" d="M26 3h6-6z"/></g><g clip-path="url(#f)"><path fill="#e2639a" d="M26 3h6-6z"/></g><g clip-path="url(#f)"><path fill="#e16299" d="M26 3h6-6z"/></g><g clip-path="url(#f)"><path fill="#e16199" d="M26 3h6-6z"/></g><g clip-path="url(#f)"><path fill="#e16099" d="M26 3h6-6z"/></g><g clip-path="url(#f)"><path fill="#e05f99" d="M26 3h6-6z"/></g><g clip-path="url(#f)"><path fill="#e05e99" d="M26 3h6-6z"/></g><g clip-path="url(#f)"><path fill="#df5d99" d="M26 2h6v1h-6z"/></g><g clip-path="url(#f)"><path fill="#df5c99" d="M26 2h6-6z"/></g><g clip-path="url(#f)"><path fill="#df5b99" d="M26 2h6-6z"/></g><g clip-path="url(#f)"><path fill="#de5a98" d="M26 2h6-6z"/></g><g clip-path="url(#f)"><path fill="#de5998" d="M26 2h6-6z"/></g><g clip-path="url(#f)"><path fill="#de5898" d="M26 2h6-6z"/></g><g clip-path="url(#f)"><path fill="#dd5798" d="M26 2h6-6z"/></g><g clip-path="url(#f)"><path fill="#dd5698" d="M29 2h3-6 3z"/></g><g clip-path="url(#g)"><path fill="#fdb1a3" d="M6 38h6-6z"/></g><g clip-path="url(#g)"><path fill="#fdb0a3" d="M6 38h6-6z"/></g><g clip-path="url(#g)"><path fill="#fcafa3" d="M6 38h6-6z"/></g><g clip-path="url(#g)"><path fill="#fcaea3" d="M6 38h6-6z"/></g><g clip-path="url(#g)"><path fill="#fcada3" d="M6 38h6-6z"/></g><g clip-path="url(#g)"><path fill="#fbaca2" d="M6 38h6-6z"/></g><g clip-path="url(#g)"><path fill="#fbaba2" d="M6 38h6-6z"/></g><g clip-path="url(#g)"><path fill="#fbaaa2" d="M6 37h6v1H6z"/></g><g clip-path="url(#g)"><path fill="#faa9a2" d="M6 37h6-6z"/></g><g clip-path="url(#g)"><path fill="#faa8a2" d="M6 37h6-6z"/></g><g clip-path="url(#g)"><path fill="#f9a7a2" d="M6 37h6-6z"/></g><g clip-path="url(#g)"><path fill="#f9a6a2" d="M6 37h6-6z"/></g><g clip-path="url(#g)"><path fill="#f9a5a2" d="M6 37h6-6z"/></g><g clip-path="url(#g)"><path fill="#f8a4a1" d="M6 37h6-6z"/></g><g clip-path="url(#g)"><path fill="#f8a3a1" d="M6 37h6-6z"/></g><g clip-path="url(#g)"><path fill="#f8a2a1" d="M6 37h6-6z"/></g><g clip-path="url(#g)"><path fill="#f7a1a1" d="M6 37h6-6z"/></g><g clip-path="url(#g)"><path fill="#f7a0a1" d="M6 37h6-6z"/></g><g clip-path="url(#g)"><path fill="#f79fa1" d="M6 37h6-6z"/></g><g clip-path="url(#g)"><path fill="#f69ea1" d="M6 37h6-6z"/></g><g clip-path="url(#g)"><path fill="#f69da1" d="M6 37h6-6z"/></g><g clip-path="url(#g)"><path fill="#f69ca0" d="M6 37h6-6z"/></g><g clip-path="url(#g)"><path fill="#f59ba0" d="M6 36h6v1H6z"/></g><g clip-path="url(#g)"><path fill="#f59aa0" d="M6 36h6-6z"/></g><g clip-path="url(#g)"><path fill="#f499a0" d="M6 36h6-6z"/></g><g clip-path="url(#g)"><path fill="#f498a0" d="M6 36h6-6z"/></g><g clip-path="url(#g)"><path fill="#f497a0" d="M6 36h6-6z"/></g><g clip-path="url(#g)"><path fill="#f396a0" d="M6 36h6-6z"/></g><g clip-path="url(#g)"><path fill="#f395a0" d="M6 36h6-6z"/></g><g clip-path="url(#g)"><path fill="#f3949f" d="M6 36h6-6z"/></g><g clip-path="url(#g)"><path fill="#f2939f" d="M6 36h6-6z"/></g><g clip-path="url(#g)"><path fill="#f2929f" d="M6 36h6-6z"/></g><g clip-path="url(#g)"><path fill="#f2919f" d="M6 36h6-6z"/></g><g clip-path="url(#g)"><path fill="#f1909f" d="M6 36h6-6z"/></g><g clip-path="url(#g)"><path fill="#f18f9f" d="M6 36h6-6z"/></g><g clip-path="url(#g)"><path fill="#f18e9f" d="M6 36h6-6z"/></g><g clip-path="url(#g)"><path fill="#f08d9f" d="M6 36h6-6z"/></g><g clip-path="url(#g)"><path fill="#f08c9e" d="M6 35h6v1H6z"/></g><g clip-path="url(#g)"><path fill="#ef8b9e" d="M6 35h6-6z"/></g><g clip-path="url(#g)"><path fill="#ef8a9e" d="M6 35h6-6z"/></g><g clip-path="url(#g)"><path fill="#ef899e" d="M6 35h6-6z"/></g><g clip-path="url(#g)"><path fill="#ee889e" d="M6 35h6-6z"/></g><g clip-path="url(#g)"><path fill="#ee879e" d="M6 35h6-6z"/></g><g clip-path="url(#g)"><path fill="#ee869e" d="M6 35h6-6z"/></g><g clip-path="url(#g)"><path fill="#ed859e" d="M6 35h6-6z"/></g><g clip-path="url(#g)"><path fill="#ed849e" d="M6 35h6-6z"/></g><g clip-path="url(#g)"><path fill="#ed829d" d="M6 35h6-6z"/></g><g clip-path="url(#g)"><path fill="#ec819d" d="M6 35h6-6z"/></g><g clip-path="url(#g)"><path fill="#ec809d" d="M6 35h6-6z"/></g><g clip-path="url(#g)"><path fill="#ec7f9d" d="M6 35h6-6z"/></g><g clip-path="url(#g)"><path fill="#eb7e9d" d="M6 35h6-6z"/></g><g clip-path="url(#g)"><path fill="#eb7d9d" d="M6 35h6-6z"/></g><g clip-path="url(#g)"><path fill="#eb7c9d" d="M6 35h6-6z"/></g><g clip-path="url(#g)"><path fill="#ea7b9d" d="M6 34h6v1H6z"/></g><g clip-path="url(#g)"><path fill="#ea7a9c" d="M6 34h6-6z"/></g><g clip-path="url(#g)"><path fill="#e9799c" d="M6 34h6-6z"/></g><g clip-path="url(#g)"><path fill="#e9789c" d="M6 34h6-6z"/></g><g clip-path="url(#g)"><path fill="#e9779c" d="M6 34h6-6z"/></g><g clip-path="url(#g)"><path fill="#e8769c" d="M6 34h6-6z"/></g><g clip-path="url(#g)"><path fill="#e8759c" d="M6 34h6-6z"/></g><g clip-path="url(#g)"><path fill="#e8749c" d="M6 34h6-6z"/></g><g clip-path="url(#g)"><path fill="#e7739c" d="M6 34h6-6z"/></g><g clip-path="url(#g)"><path fill="#e7729b" d="M6 34h6-6z"/></g><g clip-path="url(#g)"><path fill="#e7719b" d="M6 34h6-6z"/></g><g clip-path="url(#g)"><path fill="#e6709b" d="M6 34h6-6z"/></g><g clip-path="url(#g)"><path fill="#e66f9b" d="M6 34h6-6z"/></g><g clip-path="url(#g)"><path fill="#e66e9b" d="M6 34h6-6z"/></g><g clip-path="url(#g)"><path fill="#e56d9b" d="M6 34h6-6z"/></g><g clip-path="url(#g)"><path fill="#e56c9b" d="M6 33h6v1H6z"/></g><g clip-path="url(#g)"><path fill="#e46b9b" d="M6 33h6-6z"/></g><g clip-path="url(#g)"><path fill="#e46a9a" d="M6 33h6-6z"/></g><g clip-path="url(#g)"><path fill="#e4699a" d="M6 33h6-6z"/></g><g clip-path="url(#g)"><path fill="#e3689a" d="M6 33h6-6z"/></g><g clip-path="url(#g)"><path fill="#e3679a" d="M6 33h6-6z"/></g><g clip-path="url(#g)"><path fill="#e3669a" d="M6 33h6-6z"/></g><g clip-path="url(#g)"><path fill="#e2659a" d="M6 33h6-6z"/></g><g clip-path="url(#g)"><path fill="#e2649a" d="M6 33h6-6z"/></g><g clip-path="url(#g)"><path fill="#e2639a" d="M6 33h6-6z"/></g><g clip-path="url(#g)"><path fill="#e16299" d="M6 33h6-6z"/></g><g clip-path="url(#g)"><path fill="#e16199" d="M6 33h6-6z"/></g><g clip-path="url(#g)"><path fill="#e16099" d="M6 33h6-6z"/></g><g clip-path="url(#g)"><path fill="#e05f99" d="M6 33h6-6z"/></g><g clip-path="url(#g)"><path fill="#e05e99" d="M6 33h6-6z"/></g><g clip-path="url(#g)"><path fill="#df5d99" d="M6 32h6v1H6z"/></g><g clip-path="url(#g)"><path fill="#df5c99" d="M6 32h6-6z"/></g><g clip-path="url(#g)"><path fill="#df5b99" d="M6 32h6-6z"/></g><g clip-path="url(#g)"><path fill="#de5a98" d="M6 32h6-6z"/></g><g clip-path="url(#g)"><path fill="#de5998" d="M6 32h6-6z"/></g><g clip-path="url(#g)"><path fill="#de5898" d="M6 32h6-6z"/></g><g clip-path="url(#g)"><path fill="#dd5798" d="M6 32h6-6z"/></g><g clip-path="url(#g)"><path fill="#dd5698" d="M9 32h3-6 3z"/></g></svg>