<svg xmlns="http://www.w3.org/2000/svg" xmlns:xlink="http://www.w3.org/1999/xlink" style="margin-top:-4px;margin-bottom:4px;" viewBox="0 0 46 35"> <!-- Generator: Sketch 39.1 (31720) - http://www.bohemiancoding.com/sketch --> <title>Slice 1</title> <desc>Created with Sketch.</desc> <defs> <linearGradient x1="50%" y1="-2.41146029e-09%" x2="50%" y2="100%" id="linearGradient-1"> <stop stop-color="#2865B7" offset="0%"></stop> <stop stop-color="#34B4E6" offset="100%"></stop> </linearGradient> <linearGradient x1="50%" y1="0.00142857143%" x2="50%" y2="100.008571%" id="linearGradient-2"> <stop stop-color="#2865B7" offset="0%"></stop> <stop stop-color="#34B4E6" offset="100%"></stop> </linearGradient> <linearGradient x1="50%" y1="0.00555555556%" x2="50%" y2="100.006667%" id="linearGradient-3"> <stop stop-color="#2865B7" offset="0%"></stop> <stop stop-color="#34B4E6" offset="100%"></stop> </linearGradient> <linearGradient x1="50%" y1="0.008%" x2="50%" y2="100.012%" id="linearGradient-4"> <stop stop-color="#2865B7" offset="0%"></stop> <stop stop-color="#34B4E6" offset="100%"></stop> </linearGradient> <linearGradient x1="50%" y1="0.005%" x2="50%" y2="100.0075%" id="linearGradient-5"> <stop stop-color="#2865B7" offset="0%"></stop> <stop stop-color="#34B4E6" offset="100%"></stop> </linearGradient> <linearGradient x1="50%" y1="0.005%" x2="50%" y2="100%" id="linearGradient-6"> <stop stop-color="#2865B7" offset="0%"></stop> <stop stop-color="#34B4E6" offset="100%"></stop> </linearGradient> <linearGradient x1="50%" y1="0.00357142857%" x2="50%" y2="100.001429%" id="linearGradient-7"> <stop stop-color="#2865B7" offset="0%"></stop> <stop stop-color="#34B4E6" offset="100%"></stop> </linearGradient> </defs> <g id="Page-1" stroke="none" stroke-width="1" fill="none" fill-rule="evenodd"> <g id="dashboard"> <path d="M41.8,35 L4.2,35 C1.9,35 0,33.1 0,30.8 L0,4.2 C0,1.9 1.9,0 4.2,0 L41.8,0 C44.1,0 46,1.9 46,4.2 L46,30.8 C46,33.1 44.1,35 41.8,35 L41.8,35 Z M5.5,3 C4.7,3 4,3.7 4,4.5 C4,5.3 4.7,6 5.5,6 C6.3,6 7,5.3 7,4.5 C7,3.7 6.3,3 5.5,3 L5.5,3 Z M10.5,3 C9.7,3 9,3.7 9,4.5 C9,5.3 9.7,6 10.5,6 C11.3,6 12,5.3 12,4.5 C12,3.7 11.3,3 10.5,3 L10.5,3 Z M15.5,3 C14.7,3 14,3.7 14,4.5 C14,5.3 14.7,6 15.5,6 C16.3,6 17,5.3 17,4.5 C17,3.7 16.3,3 15.5,3 L15.5,3 Z M43,10 C43,9.4 42.6,9 42,9 L4,9 C3.4,9 3,9.4 3,10 L3,31 C3,31.6 3.4,32 4,32 L42,32 C42.6,32 43,31.6 43,31 L43,10 L43,10 Z" id="Shape" fill="url(#linearGradient-1)"></path> <path d="M26,16 C26.6,16 27,16.4 27,17 L27,22 C27,22.6 26.6,23 26,23 C25.4,23 25,22.6 25,22 L25,17 C25,16.4 25.4,16 26,16 L26,16 Z" id="Shape" fill="url(#linearGradient-2)"></path> <path d="M30,14 C30.6,14 31,14.4 31,15 L31,22 C31,22.6 30.6,23 30,23 C29.4,23 29,22.6 29,22 L29,15 C29,14.4 29.4,14 30,14 L30,14 Z" id="Shape" fill="url(#linearGradient-3)"></path> <path d="M34,18 C34.6,18 35,18.4 35,19 L35,22 C35,22.6 34.6,23 34,23 C33.4,23 33,22.6 33,22 L33,19 C33,18.4 33.4,18 34,18 L34,18 Z" id="Shape" fill="url(#linearGradient-4)"></path> <path d="M38,15 C38.6,15 39,15.4 39,16 L39,22 C39,22.6 38.6,23 38,23 C37.4,23 37,22.6 37,22 L37,16 C37,15.4 37.4,15 38,15 L38,15 Z" id="Shape" fill="url(#linearGradient-5)"></path> <path d="M25,25 L39,25 C39.6,25 40,25.4 40,26 C40,26.6 39.6,27 39,27 L25,27 C24.4,27 24,26.6 24,26 C24,25.4 24.4,25 25,25 L25,25 Z" id="Shape" fill="url(#linearGradient-6)"></path> <path d="M14,14 C17.9,14 21,17.1 21,21 C21,24.9 17.9,28 14,28 C10.1,28 7,24.9 7,21 C7,17.1 10.1,14 14,14 L14,14 Z" id="Shape" fill="url(#linearGradient-7)"></path> <g id="Group" opacity="0.25" transform="translate(14.000000, 14.000000)" fill="#000000"> <path d="M0,0 C3.9,0 7,3.1 7,7 L0,7 L0,0 L0,0 Z" id="Shape"></path> </g> </g> </g> </svg>